PathFileType	4	(X/Y/Z)	 s07c0301.trc
DataRate	CameraRate	NumFrames	NumMarkers	Units	OrigDataRate	OrigDataStartFrame	OrigNumFrames
200	200	4	48	mm	200	751	2000
Frame#	Time	racr			lacr			c7			jug			rlel			rdr			llel			ldr			s2			lic			ric			lasi			rasi			rpsi			lpsi			rgt			lgt			rth1			rth2			rth3			rth4			rlfc			rmfc			rsh1			rsh2			rsh3			rsh4			rlmal			rcal			rtoe			rmt5			lth1			lth2			lth4			lth3			llfc			lmfc			lsh1			lsh2			lsh3			lsh4			llmal			lcal			ltoe			lmt5			SBIKE			LBIKE			RBIKE			
		X1	Y1	Z1	X2	Y2	Z2	X3	Y3	Z3	X4	Y4	Z4	X5	Y5	Z5	X6	Y6	Z6	X7	Y7	Z7	X8	Y8	Z8	X9	Y9	Z9	X10	Y10	Z10	X11	Y11	Z11	X12	Y12	Z12	X13	Y13	Z13	X14	Y14	Z14	X15	Y15	Z15	X16	Y16	Z16	X17	Y17	Z17	X18	Y18	Z18	X19	Y19	Z19	X20	Y20	Z20	X21	Y21	Z21	X22	Y22	Z22	X23	Y23	Z23	X24	Y24	Z24	X25	Y25	Z25	X26	Y26	Z26	X27	Y27	Z27	X28	Y28	Z28	X29	Y29	Z29	X30	Y30	Z30	X31	Y31	Z31	X32	Y32	Z32	X33	Y33	Z33	X34	Y34	Z34	X35	Y35	Z35	X36	Y36	Z36	X37	Y37	Z37	X38	Y38	Z38	X39	Y39	Z39	X40	Y40	Z40	X41	Y41	Z41	X42	Y42	Z42	X43	Y43	Z43	X44	Y44	Z44	X45	Y45	Z45	X46	Y46	Z46	X47	Y47	Z47	X48	Y48	Z48	
751	3.7550	829.098761	1386.409155	-89.385971	793.958350	1440.736597	-420.588700	815.911319	1468.623191	-246.265123	757.847214	1328.471576	-276.723544	582.470891	1146.423682	33.177397	730.012489	920.115770	-57.850212	587.903490	1156.722522	-493.198249	730.197216	912.544978	-398.407026	221.167163	1275.024774	-208.847617	366.863623	1334.737549	-352.396649	421.968571	1259.504452	-87.153309	387.596370	1250.639030	-352.748572	422.862939	1206.001543	-104.332815	264.074438	1302.817634	-157.133323	255.203494	1327.044465	-261.824284	322.765796	1142.983938	-51.106018	299.661567	1190.234142	-410.368864	337.795666	996.981853	-53.623053	350.971354	910.622525	-60.688976	324.264072	829.299585	-57.214370	384.719483	908.520914	-75.274985	302.770084	689.683478	-88.699939	276.542092	678.977628	-188.127170	225.648004	571.516436	-54.363376	201.689948	486.561254	-70.992271	143.844382	422.514036	-61.697991	214.224633	482.366500	-108.846860	69.965648	305.132308	-60.759899	-4.915510	308.701753	-82.414245	216.299398	124.574243	-129.799845	139.355441	136.563372	-51.892347	384.956413	1102.690335	-423.843427	466.936318	1070.780493	-432.316373	489.079719	1098.675625	-422.594416	522.898161	1001.406253	-435.840814	643.781770	870.752410	-415.478870	641.330475	855.546336	-312.934380	532.092234	776.070970	-422.524272	474.078911	716.150526	-400.499552	388.769858	686.898810	-403.649399	478.397074	718.752842	-359.267147	268.024257	622.097220	-400.371629	190.451955	642.847677	-364.435145	377.884545	421.279998	-350.122742	298.170868	450.519285	-420.007748	-260.261284	975.651868	-233.100133	-76.299454	83.703994	-438.080652	-83.077482	79.897430	-40.431064	
752	3.7600	829.342829	1386.713045	-91.055047	795.172559	1440.081465	-422.842810	817.442153	1467.991455	-248.890581	757.718604	1328.677236	-279.051942	582.875836	1147.128223	31.513196	730.031442	919.173520	-58.757022	587.251488	1156.727362	-493.691782	729.999166	913.107377	-398.371429	221.467450	1280.071601	-207.496397	366.363437	1338.640990	-351.914442	422.644126	1264.190740	-86.710556	386.809009	1254.293294	-352.136866	423.585430	1210.377480	-103.952750	265.274763	1307.028893	-156.562669	255.394381	1331.843465	-260.717664	324.121613	1146.897940	-50.350731	298.180296	1194.322753	-408.754512	340.343264	1000.639249	-54.156745	354.493480	914.420347	-61.154769	328.688472	832.703065	-57.844595	388.244087	912.638265	-75.515185	308.520762	692.858176	-89.262044	282.052928	682.681749	-188.447362	229.269572	576.029033	-54.619444	203.662060	491.540028	-71.005234	144.641131	428.690791	-61.289835	215.854127	486.912735	-109.046499	68.630822	312.869778	-59.878166	-5.842893	319.480439	-82.245652	206.283199	125.337331	-129.873708	130.111662	140.931241	-51.905317	382.183637	1105.536981	-422.133411	463.928889	1073.142603	-431.210759	486.298215	1101.067726	-422.140689	519.348013	1003.391846	-434.964119	641.144207	872.172167	-414.621505	637.549410	857.360280	-311.820482	530.147313	776.275203	-422.169569	473.495490	714.731531	-400.611075	388.945599	683.765699	-403.568226	478.062201	717.134668	-359.230274	269.776043	616.945514	-400.153750	190.933083	633.779383	-364.547516	388.268178	421.478155	-350.183703	306.051620	446.671213	-420.350889	-260.243619	975.782749	-233.175402	-76.292251	83.759514	-438.095487	-83.065830	79.962560	-40.463034	
753	3.7650	830.268393	1386.062211	-94.482769	796.572126	1438.726558	-425.001750	819.057106	1466.862297	-251.614956	757.818148	1328.474369	-281.758126	583.083655	1147.734924	30.040973	729.783275	918.975072	-58.722696	586.486239	1156.713108	-494.441847	729.690257	913.661155	-398.375414	221.856722	1285.366119	-206.202911	365.978660	1342.674332	-351.564139	423.237582	1269.086930	-86.016152	386.006469	1258.057260	-351.509995	424.025334	1214.901223	-103.764127	265.976195	1311.874567	-155.423307	255.686953	1336.848354	-259.665013	325.452675	1150.903735	-49.453322	296.591471	1198.387026	-407.136954	343.278435	1004.055621	-54.719177	358.576327	918.104764	-62.043832	334.056187	835.973061	-58.794646	392.423346	916.875318	-76.201258	315.446800	695.842898	-90.266472	289.522154	685.907657	-188.703386	233.891059	580.660706	-55.187244	206.496390	496.686471	-71.380589	146.356094	434.942393	-61.248194	218.377849	491.743807	-109.351750	67.933887	321.057610	-59.281060	-6.014214	330.550986	-82.208787	196.378620	126.705880	-129.913894	121.197810	145.977283	-51.950861	379.280576	1108.223921	-420.452818	460.648489	1075.209471	-430.031252	483.313748	1103.033575	-421.505531	515.500080	1004.935259	-433.818530	637.656007	872.609780	-413.769056	633.617078	857.548259	-310.586300	527.244536	775.361660	-421.878549	472.119548	712.371713	-400.598685	388.210828	679.572182	-403.533133	469.908612	704.519582	-346.082640	270.758982	610.424335	-399.811428	190.537269	623.293310	-364.797956	397.810709	421.563079	-350.133640	313.510007	442.274186	-420.694971	-260.199189	975.927619	-233.180087	-76.293653	83.829995	-438.084620	-83.060850	80.041031	-40.472318	
754	3.7700	831.523620	1384.742943	-98.792832	798.085579	1436.861708	-426.984089	820.471879	1465.091732	-254.159267	758.289624	1328.356118	-285.144056	583.192046	1148.106571	28.811483	729.855126	918.865104	-58.797627	585.449450	1156.584409	-495.301500	729.327264	914.242874	-398.414547	222.266660	1290.797987	-204.862090	365.713328	1346.668736	-351.379007	423.719376	1274.126492	-85.282754	385.271664	1261.862977	-350.834240	424.503706	1219.410508	-103.435589	266.784738	1316.724988	-154.331843	256.127670	1341.913833	-258.455687	326.781199	1154.718321	-48.412726	295.058122	1202.382980	-405.572491	346.571519	1007.355442	-55.336327	363.251712	921.666910	-63.107123	340.238182	839.147933	-59.999122	397.046040	921.092086	-77.466593	323.242667	698.799578	-91.402552	296.948919	689.196462	-189.910962	239.295207	585.360554	-56.044944	210.037476	502.039095	-72.036493	148.610367	441.623433	-61.516171	221.729255	496.785596	-110.028463	67.773525	329.564593	-59.018499	-5.150082	341.895239	-82.335005	186.941321	128.791153	-129.706304	112.661189	151.695749	-52.017655	376.362460	1110.812105	-418.916615	457.283533	1076.824758	-428.729222	480.301635	1104.411840	-420.538180	511.298199	1006.016116	-432.679696	633.121336	872.499252	-413.019018	628.968979	856.747381	-310.169452	523.397379	773.433363	-421.763488	469.823939	708.983784	-400.702010	386.687338	674.335634	-403.515696	467.458003	701.265016	-345.917500	270.955322	602.448530	-399.548114	189.650488	611.760468	-365.937255	407.416550	421.362921	-351.239631	320.523569	437.333122	-421.033312	-260.139867	975.999482	-233.178566	-76.287065	83.889576	-438.093627	-83.038905	80.125937	-40.470766	
